<?xml version="1.0" encoding="UTF-8"?>
<svg width="210mm" height="297mm" version="1.1" viewBox="0 0 210 297" xmlns="http://www.w3.org/2000/svg" xmlns:cc="http://creativecommons.org/ns#" xmlns:dc="http://purl.org/dc/elements/1.1/" xmlns:rdf="http://www.w3.org/1999/02/22-rdf-syntax-ns#">
<metadata>
<rdf:RDF>
<cc:Work rdf:about="">
<dc:format>image/svg+xml</dc:format>
<dc:type rdf:resource="http://purl.org/dc/dcmitype/StillImage"/>
<dc:title/>
</cc:Work>
</rdf:RDF>
</metadata>
<g transform="matrix(3.6888 0 0 3.6888 -405.09 -580.18)">
<g transform="matrix(3.043 0 0 3.043 111.41 192.99)" fill="none">
<g transform="translate(-156.04 -128.05)" stroke="#000" stroke-width=".33432">
<path d="m156.78 139.36-0.33935 2.6201 2.086-1.6403" stroke-linejoin="round"/>
<path d="m156.78 139.36s0.16157 6e-3 0.44717 0.14887c0.29341 0.14677 0.17111 0.42553 0.32519 0.51405 0.15409 0.0885 0.32391-0.12208 0.61796 0.0185 0.29405 0.14057 0.35629 0.29836 0.35629 0.29836"/>
<path d="m156.63 140.92 0.6625 0.38708"/>
<path d="m156.78 139.36s1.4336-2.4497 2.6372-4.5526c0.29846-0.52147 0.28748-0.49008 0.78033-1.3633m-0.011 3.9962c-1.5947 2.8078-1.6599 2.8996-1.6599 2.8996" stroke-linecap="round"/>
<path d="m159.61 134.24 0.64787 0.37386"/>
<path d="m160.03 133.61 0.31231 0.17028"/>
<path d="m160.03 135.62 0.23471-0.47083" stroke-linecap="round"/>
<path d="m157.67 139.82 1.9661-3.4702" stroke-linecap="round"/>
</g>
<g transform="translate(-156.04 -128.05)" stroke="#010101">
<path d="m159.96 130.94s-0.4062 0.22202-0.62698 0.28495c-0.22999 0.0654-0.4733 0.11346-0.71144 0.0919-0.23631-0.0214-0.47305-0.0975-0.67807-0.2166-0.21337-0.12461-0.4089-0.29664-0.54368-0.50368-0.12287-0.18881-0.18061-0.41735-0.21941-0.63928-0.0343-0.19332 7e-3 -0.3932-8e-3 -0.58895-9e-3 -0.11285-0.0124-0.22876-0.0481-0.3362-0.0472-0.14139-0.10778-0.28859-0.21461-0.39271-0.0916-0.0894-0.21923-0.13727-0.34137-0.17531-0.10847-0.0344-0.33825-0.0442-0.33825-0.0442s0.55954-0.15617 0.84728-0.17024c0.26425-0.0129 0.53137 0.0225 0.78969 0.0795 0.21777 0.0481 0.43364 0.1175 0.6321 0.21924 0.23197 0.11892 0.44984 0.27137 0.63925 0.45045 0.18137 0.17151 0.33615 0.3733 0.46504 0.58712 0.12133 0.20121 0.22405 0.41789 0.28416 0.64503 0.0609 0.22963 0.0727 0.70895 0.0727 0.70895z" stroke-linejoin="round" stroke-width=".38152"/>
<path d="m158.53 130.63s-0.14215-0.043-0.20883-0.0745c-0.10298-0.0495-0.20907-0.10081-0.29195-0.17933-0.0648-0.0617-0.11104-0.14171-0.15244-0.22099-0.0503-0.0962-0.11434-0.30483-0.11434-0.30483" stroke-linecap="round" stroke-width=".27349"/>
<path d="m159.8 131.11c0.21151 0.2626 0.35831 0.49581 0.57675 0.74292 0.21844 0.2471 0.69731 0.68994 0.96029 0.90982" stroke-linecap="round" stroke-width=".47861"/>
<path d="m160.05 130.91s0.7367 0.14562 1.1175 0.24581c0.38093 0.0998 0.80085 0.22236 1.1653 0.35574 0.36452 0.13324 0.68529 0.28048 1.0204 0.43726 0.33512 0.15693 0.64771 0.30765 0.98925 0.50342 0.34155 0.19576 0.86056 0.57227 1.1885 0.81403" stroke-linecap="round" stroke-width=".51037"/>
<path d="m161.56 132.88s0.32091-0.29704 0.44032-0.51619c0.11936-0.21914 0.23528-0.78429 0.23528-0.78429" stroke-width=".47861"/>
</g>
<g transform="translate(-156.04 -128.05)" stroke="#000">
<path d="m160.2 131.74c0.0316-1.1263 3.0909-1.591 4.7609-1.5947 1.67-3e-3 4.7317 0.41608 4.7378 1.5947 3e-3 0.60257-0.81572 1.0196-1.8407 1.2824-0.97975 0.25122-2.1479 0.36157-2.9665 0.3585-1.6749-6e-3 -4.7232-0.51458-4.6916-1.6409z" stroke-linejoin="round" stroke-width=".48424"/>
<path d="m169.68 131.88-0.0231 9.0593" stroke-width=".47716"/>
<path d="m160.2 131.74v8.9671" stroke-width=".47932"/>
<path d="m160.2 140.71s0.04 1.7933 4.7147 1.7796c4.6747-0.0138 4.7378-1.5486 4.7378-1.5486" stroke-linecap="round" stroke-width=".48424"/>
<path d="m163.97 135.11s1.0218 1.2806 3.0738 2.5884c2.052 1.3078 2.6116 1.3173 2.6116 1.3173" stroke-linecap="round" stroke-width=".48424"/>
<path d="m169.66 139.02s0.7206 0.21308 1.0862 0.16178c0.36563-0.0513 0.65676-0.0819 0.90134-0.36978 0.24459-0.28784 0.39453-0.69264 0.36978-1.2249-0.0248-0.53225-0.40677-1.333-0.67023-1.8951-0.26345-0.56209-0.55313-1.0494-0.832-1.456s-0.80889-0.99378-0.80889-0.99378" stroke-width=".48424"/>
<path d="m163.58 133.25s-0.36148 0.25364-0.36045 0.42277c5e-3 0.79877-5e-3 1.4106-7e-3 2.2429-4.3e-4 0.1638-5e-3 0.53858-0.34807 0.54138-0.31865 3e-3 -0.3455-0.3712-0.34667-0.53461-3e-3 -0.46103-3e-3 -0.46179 0-0.84365 1e-3 -0.15807 6e-3 -0.48613-0.32355-0.49375-0.35719-8e-3 -0.33754 0.32729-0.3385 0.48021-7e-3 1.0729-0.0259 1.6614-0.0313 3.1482-6.5e-4 0.18181-0.25746 0.33117-0.43911 0.32355-0.16364-7e-3 -0.36402-0.15987-0.36978-0.32355-0.0731-2.0775 6.3e-4 -3.2814 0-5.0614-1.1e-4 -0.32341-0.23532-0.62004-0.23532-0.62004" stroke-width=".48424"/>
<path d="m168.22 141.35s0.45115-0.14445 0.69334-0.27734c0.24218-0.13289 0.73956-0.53156 0.73956-0.53156" stroke-linecap="round" stroke-width=".27671"/>
<path d="m165.26 141.79s-0.78244 0.0215-1.1721-7e-3c-0.53496-0.0397-1.0747-0.09-1.5931-0.22774-0.44878-0.11923-0.8954-0.2768-1.295-0.51329-0.37029-0.21913-0.99444-0.82301-0.99444-0.82301" stroke-linecap="round" stroke-width=".27671"/>
<path d="m161.59 132.85s1.1238-0.61501 3.3049-0.57777c2.6278 0.0448 3.3974 0.57777 3.3974 0.57777" stroke-width=".27671"/>
</g>
</g>
</g>
<path d="m105.3 99.297c-15.949-7.1705-33.619-7.4611-53.344 0.47209-25.656-8.6598-31.229-2.2571-42.959-0.47209-1.9031-57.264 35.105-92.453 96.303-96.303" fill="none" stroke="#000" stroke-linecap="round" stroke-width="6.3717"/>
<path d="m105.3 99.297c15.949-7.1705 33.619-7.4611 53.344 0.47209 25.656-8.6598 31.229-2.2571 42.959-0.47209 1.9031-57.264-35.352-89.002-96.303-96.303" fill="none" stroke="#000" stroke-linecap="round" stroke-width="6.3717"/>
<path d="m8.9938 99.297 9.5344 29.035" fill="none" stroke="#000" stroke-width="6.3717"/>
<path d="m51.953 99.769 5.5184 57.418" fill="none" stroke="#000" stroke-width="6.3717"/>
<path d="m201.6 99.297-30.935 93.863" fill="none" stroke="#000" stroke-width="6.3717"/>
<path d="m158.64 99.769-5.6927 57.592" fill="none" stroke="#000" stroke-width="6.3717"/>
<path d="m105.3 99.297 1.9617 49.739" fill="none" stroke="#000" stroke-width="6.3717"/>
<text x="102.6315" y="109.37679" fill="#000000" font-family="Quisterial" font-size="3.5278px" letter-spacing="0px" stroke-width=".26458" word-spacing="0px" style="line-height:25" xml:space="preserve"><tspan x="102.6315" y="154.48766" stroke-width=".26458" style="line-height:25"/></text>
<text x="110.11504" y="123.80934" fill="#000000" font-family="Quisterial" font-size="3.5278px" letter-spacing="0px" stroke-width=".26458" word-spacing="0px" style="line-height:1.25" xml:space="preserve"><tspan x="110.11504" y="127.02784" stroke-width=".26458"/></text>
<text x="152.87817" y="164.43431" fill="#000000" font-family="Quisterial" font-size="3.5278px" letter-spacing="0px" stroke-width=".26458" word-spacing="0px" style="line-height:0" xml:space="preserve"><tspan x="152.87817" y="165.44795" stroke-width=".26458"/></text>
</svg>
